<?xml version="1.0" standalone="no"?>
<!DOCTYPE svg PUBLIC "-//W3C//DTD SVG 20010904//EN"
 "http://www.w3.org/TR/2001/REC-SVG-20010904/DTD/svg10.dtd">
<svg version="1.0" xmlns="http://www.w3.org/2000/svg"
 width="118.000000pt" height="100.000000pt" viewBox="0 0 118.000000 100.000000"
 preserveAspectRatio="xMidYMid meet">
<metadata>
Created by potrace 1.10, written by Peter Selinger 2001-2011
</metadata>
<g transform="translate(0.000000,100.000000) scale(0.100000,-0.100000)"
fill="#000000" stroke="none">
<path d="M0 961 c0 -29 12 -59 45 -113 24 -40 48 -77 52 -83 5 -5 21 -35 36
-65 15 -30 37 -71 49 -90 11 -19 27 -46 34 -60 l14 -25 -52 -3 c-60 -4 -78
-15 -78 -49 0 -31 15 -36 110 -37 43 0 78 -3 77 -6 -1 -3 14 -30 33 -60 19
-30 43 -71 53 -90 11 -19 28 -47 38 -62 11 -14 19 -31 19 -37 0 -6 3 -11 8
-11 4 0 15 -17 25 -37 20 -43 36 -71 55 -91 7 -7 10 -17 7 -22 -5 -8 25 -24
32 -17 2 3 -56 106 -128 231 l-132 226 -88 0 c-71 0 -89 3 -89 15 0 11 18 15
79 17 l79 3 -135 233 c-77 133 -132 239 -129 247 5 13 80 15 567 13 364 -2
564 -7 566 -13 1 -5 -58 -115 -132 -244 -74 -128 -135 -235 -135 -237 0 -2 34
-4 75 -4 59 0 75 -3 75 -15 0 -11 -19 -15 -87 -17 l-86 -3 -45 -75 c-173 -294
-221 -381 -205 -378 9 2 31 28 47 59 27 48 74 130 111 190 44 72 86 149 85
155 -4 16 40 28 107 30 82 2 93 6 93 38 0 31 -16 42 -70 45 -25 2 -47 4 -48 6
-2 2 3 16 12 32 8 15 25 47 36 71 12 23 25 42 31 42 6 0 8 4 4 9 -3 5 -1 12 4
16 5 3 16 18 24 33 7 15 28 51 45 80 17 28 29 52 26 52 -2 0 4 10 16 22 11 12
20 30 20 40 0 10 5 18 10 18 6 0 10 14 10 30 l0 30 -585 0 -585 0 0 -39z"/>
<path d="M50 957 c0 -2 60 -107 133 -233 l133 -229 261 -3 261 -2 123 212 c67
117 129 223 137 236 l14 22 -531 0 c-292 0 -531 -1 -531 -3z m997 -26 c16 -1
11 -21 -13 -56 -21 -30 -53 -88 -56 -102 -1 -5 -10 -17 -20 -28 -10 -11 -21
-30 -24 -42 -4 -13 -10 -23 -15 -23 -5 0 -9 -7 -9 -15 0 -9 -5 -21 -11 -28 -5
-7 -24 -34 -42 -62 l-32 -50 -244 -3 c-232 -2 -245 -1 -263 17 -10 11 -18 24
-18 29 0 4 -20 41 -45 81 -25 40 -45 77 -45 82 0 5 -4 9 -10 9 -5 0 -10 6 -10
13 0 7 -16 36 -35 65 -20 28 -32 52 -29 52 4 0 0 8 -9 18 -10 10 -14 22 -10
25 3 4 0 7 -8 7 -10 0 -10 3 -2 8 8 5 878 8 950 3z"/>
<path d="M340 456 c0 -4 201 -352 228 -396 5 -8 12 -13 14 -10 3 3 48 79 100
170 53 91 106 182 118 203 l22 37 -241 0 c-133 0 -241 -2 -241 -4z m277 -25
c165 -1 165 -1 127 -56 -11 -17 -44 -72 -73 -122 -29 -51 -57 -95 -62 -98 -5
-4 -8 -9 -5 -13 2 -4 -5 -15 -14 -25 -18 -18 -19 -18 -31 5 -6 12 -15 25 -18
28 -4 3 -19 30 -35 60 -39 78 -79 147 -99 170 -32 38 -20 57 31 54 15 -1 95
-3 179 -3z"/>
</g>
</svg>
