<?xml version="1.0" standalone="no"?>
<!DOCTYPE svg PUBLIC "-//W3C//DTD SVG 20010904//EN"
 "http://www.w3.org/TR/2001/REC-SVG-20010904/DTD/svg10.dtd">
<svg version="1.0" xmlns="http://www.w3.org/2000/svg"
 width="118.000000pt" height="118.000000pt" viewBox="0 0 118.000000 118.000000"
 preserveAspectRatio="xMidYMid meet">
<metadata>
Created by potrace 1.11, written by Peter Selinger 2001-2013
</metadata>
<g transform="translate(0.000000,118.000000) scale(0.100000,-0.100000)"
fill="#000000" stroke="none">
<path d="M14 1065 c-3 -8 52 -114 129 -247 l135 -233 -79 -3 c-61 -2 -79 -6
-79 -17 0 -12 18 -15 89 -15 l88 0 133 -229 c92 -158 138 -228 149 -226 9 1
73 101 146 226 l131 224 87 3 c68 2 87 6 87 17 0 12 -16 15 -75 15 -41 0 -75
2 -75 4 0 2 61 109 135 237 74 129 133 239 132 244 -2 6 -202 11 -566 13 -487
2 -562 0 -567 -13z m1084 -37 c-8 -13 -70 -119 -137 -236 l-123 -212 -261 2
-261 3 -133 229 c-73 126 -133 231 -133 233 0 2 239 3 531 3 l531 0 -14 -22z
m-298 -515 c-12 -21 -65 -112 -118 -203 -52 -91 -97 -167 -100 -170 -2 -3 -9
2 -14 10 -27 44 -228 392 -228 396 0 2 108 4 241 4 l241 0 -22 -37z"/>
</g>
</svg>
